<?xml version="1.0" encoding="utf-8"?>
<!-- Generator: Adobe Illustrator 22.1.0, SVG Export Plug-In . SVG Version: 6.00 Build 0)  -->
<svg version="1.1" id="Слой_1" xmlns="http://www.w3.org/2000/svg" xmlns:xlink="http://www.w3.org/1999/xlink" x="0px" y="0px"
	 viewBox="0 0 310.5 320" style="enable-background:new 0 0 310.5 320;" xml:space="preserve">
<style type="text/css">
	.st0{fill:#ECEC70;}
	.st1{fill:#1D3E4F;}
</style>
<g>
	<path class="st0" d="M242.6,0c0.2,0.4,0.4,0.9,0.6,1.3l44.5,107.1c23.3,56-2.4,120.9-57.2,144.7l-104.8,45.5
		c-13.5,5.8-27.7,8.8-41.9,8.8c-13.5,0-27-2.6-39.9-7.8c-17.4-7-32.3-18.2-43.8-32.4V320h310.5V0H242.6z"/>
	<path class="st1" d="M43.8,299.6c12.9,5.2,26.4,7.8,39.9,7.8c14.3,0,28.5-2.9,41.9-8.8l104.8-45.5c54.8-23.8,80.5-88.7,57.2-144.7
		L243.1,1.3c-0.2-0.4-0.4-0.9-0.6-1.3h-3c0.4,0.8,0.7,1.6,1.1,2.4l44.5,107.1c22.7,54.6-2.3,117.9-55.8,141.1l-104.8,45.5
		C99,307.2,70.7,307.5,44.8,297c-18-7.3-33.4-19.1-44.8-34.4v4.5C11.5,281.4,26.4,292.6,43.8,299.6z"/>
</g>
</svg>
