<?xml version="1.0" encoding="utf-8"?>
<!-- Generator: Adobe Illustrator 22.1.0, SVG Export Plug-In . SVG Version: 6.00 Build 0)  -->
<svg version="1.2" baseProfile="tiny" id="Layer_1" xmlns="http://www.w3.org/2000/svg" xmlns:xlink="http://www.w3.org/1999/xlink"
	 x="0px" y="0px" viewBox="0 0 148.3 148.3" xml:space="preserve">
<path fill="#EAEA7A" d="M129.9,0H18.3C8.2,0,0,8.2,0,18.3v111.6c0,10.1,8.2,18.3,18.3,18.3h32.8L102.9,97c1.8-1.8,2.8-4.1,2.8-6.7
	c0-2.5-1-4.9-2.8-6.7L61.6,42.4c-3.6-3.6-9.7-3.6-13.3,0l-26,26L0,46.1V36c0.5,0.4,1.1,0.8,1.5,1.2L22.3,58l20.8-20.8
	c3.2-3.2,7.4-4.9,11.8-4.9s8.7,1.7,11.8,4.9l41.3,41.3c3.2,3.2,4.9,7.4,4.9,11.8c0,4.5-1.7,8.7-4.9,11.8l-45.8,46h67.7
	c10.1,0,18.3-8.2,18.3-18.3V18.3C148.3,8.2,140.1,0,129.9,0z"/>
</svg>
