<?xml version="1.0" encoding="utf-8"?>
<!-- Generator: Adobe Illustrator 22.1.0, SVG Export Plug-In . SVG Version: 6.00 Build 0)  -->
<svg version="1.1" id="Layer_1" xmlns="http://www.w3.org/2000/svg" xmlns:xlink="http://www.w3.org/1999/xlink" x="0px" y="0px"
	 viewBox="0 0 2500 741" style="enable-background:new 0 0 2500 741;" xml:space="preserve">
<style type="text/css">
	.st0{fill:#A6A6A6;}
	.st1{fill:url(#SVGID_1_);}
	.st2{fill:url(#SVGID_2_);}
	.st3{fill:url(#SVGID_3_);}
	.st4{fill:url(#SVGID_4_);}
	.st5{opacity:0.2;enable-background:new    ;}
	.st6{opacity:0.12;enable-background:new    ;}
	.st7{opacity:0.25;fill:#FFFFFF;enable-background:new    ;}
	.st8{fill:#FFFFFF;}
	.st9{fill:#FFFFFF;stroke:#FFFFFF;stroke-width:0.2;stroke-miterlimit:10;}
</style>
<path d="M2407.4,740.9H92.6C40.7,740.9,0,700.1,0,648.3V92.7C0,40.9,40.7,0.1,92.6,0.1h2314.8c51.9,0,92.6,40.7,92.6,92.6v555.6
	C2500,700.1,2459.3,740.9,2407.4,740.9z"/>
<path class="st0" d="M2407.4,14.9c42.6,0,77.8,35.2,77.8,77.8v555.6c0,42.6-35.2,77.8-77.8,77.8H92.6c-42.6,0-77.8-35.2-77.8-77.8
	V92.7c0-42.6,35.2-77.8,77.8-77.8H2407.4 M2407.4,0.1H92.6C40.7,0.1,0,42.7,0,92.7v555.6c0,51.9,40.7,92.6,92.6,92.6h2314.8
	c51.9,0,92.6-40.7,92.6-92.6V92.7C2500,42.7,2459.3,0.1,2407.4,0.1z"/>
<g>
	
		<linearGradient id="SVGID_1_" gradientUnits="userSpaceOnUse" x1="558.1773" y1="722.4073" x2="541.3943" y2="739.1893" gradientTransform="matrix(18.5185 0 0 18.5185 -9933 -13216.5742)">
		<stop  offset="0" style="stop-color:#00A0FF"/>
		<stop  offset="7.000001e-03" style="stop-color:#00A1FF"/>
		<stop  offset="0.26" style="stop-color:#00BEFF"/>
		<stop  offset="0.512" style="stop-color:#00D2FF"/>
		<stop  offset="0.76" style="stop-color:#00DFFF"/>
		<stop  offset="1" style="stop-color:#00E3FF"/>
	</linearGradient>
	<path class="st1" d="M192.6,139c-5.6,5.6-7.4,14.8-7.4,25.9v409.3c0,11.1,3.7,20.4,9.3,25.9l1.9,1.9l229.6-229.6v-3.7L192.6,139z"
		/>
	
		<linearGradient id="SVGID_2_" gradientUnits="userSpaceOnUse" x1="570.216" y1="733.752" x2="546.019" y2="733.752" gradientTransform="matrix(18.5185 0 0 18.5185 -9933 -13216.5742)">
		<stop  offset="0" style="stop-color:#FFE000"/>
		<stop  offset="0.409" style="stop-color:#FFBD00"/>
		<stop  offset="0.775" style="stop-color:#FFA500"/>
		<stop  offset="1" style="stop-color:#FF9C00"/>
	</linearGradient>
	<path class="st2" d="M500,450.1l-75.9-75.9v-5.6l75.9-75.9l1.9,1.9l90.7,51.9c25.9,14.8,25.9,38.9,0,53.7L500,450.1z"/>
	
		<linearGradient id="SVGID_3_" gradientUnits="userSpaceOnUse" x1="561.1975" y1="735.9865" x2="538.4395" y2="758.7445" gradientTransform="matrix(18.5185 0 0 18.5185 -9933 -13216.5742)">
		<stop  offset="0" style="stop-color:#FF3A44"/>
		<stop  offset="1" style="stop-color:#C31162"/>
	</linearGradient>
	<path class="st3" d="M501.9,448.3l-77.8-77.8L192.6,602c9.3,9.3,22.2,9.3,38.9,1.9L501.9,448.3"/>
	
		<linearGradient id="SVGID_4_" gradientUnits="userSpaceOnUse" x1="543.6435" y1="713.9135" x2="553.8065" y2="724.0765" gradientTransform="matrix(18.5185 0 0 18.5185 -9933 -13216.5742)">
		<stop  offset="0" style="stop-color:#32A071"/>
		<stop  offset="6.900000e-02" style="stop-color:#2DA771"/>
		<stop  offset="0.476" style="stop-color:#15CF74"/>
		<stop  offset="0.801" style="stop-color:#06E775"/>
		<stop  offset="1" style="stop-color:#00F076"/>
	</linearGradient>
	<path class="st4" d="M501.9,292.7L231.5,139c-16.7-9.3-29.6-7.4-38.9,1.9l231.5,229.6L501.9,292.7L501.9,292.7z"/>
	<path class="st5" d="M500,446.4L231.5,598.3c-14.8,9.3-27.8,7.4-37,0l-1.9,1.9l1.9,1.9c9.3,7.4,22.2,9.3,37,0L500,446.4z"/>
	<path class="st6" d="M192.6,598.3c-5.6-5.6-7.4-14.8-7.4-25.9v1.9c0,11.1,3.7,20.4,9.3,25.9v-1.9L192.6,598.3L192.6,598.3z
		 M592.6,394.6L500,446.4l1.9,1.9l90.7-51.9c13-7.4,18.5-16.7,18.5-25.9C611.1,379.8,603.7,387.2,592.6,394.6z"/>
	<path class="st7" d="M231.5,140.9l361.1,205.6c11.1,7.4,18.5,14.8,18.5,24.1c0-9.3-5.6-18.5-18.5-25.9L231.5,139
		c-25.9-14.8-46.3-3.7-46.3,25.9v1.9C185.2,139,205.6,126.1,231.5,140.9z"/>
</g>
<g>
	<path class="st8" d="M1256.6,402.1c-44.6,0-80,33.5-80,80c0,44.6,35.3,80,80,80c44.6,0,80-33.5,80-80
		C1336.6,433.7,1301.3,402.1,1256.6,402.1z M1256.6,528.6c-24.2,0-44.6-20.5-44.6-48.4c0-27.9,20.5-48.4,44.6-48.4
		c24.2,0,44.6,18.6,44.6,48.4C1301.3,508.1,1280.8,528.6,1256.6,528.6z M1083.6,402.1c-44.6,0-80,33.5-80,80c0,44.6,35.3,80,80,80
		c44.6,0,80-33.5,80-80C1163.6,433.7,1128.3,402.1,1083.6,402.1z M1083.6,528.6c-24.2,0-44.6-20.5-44.6-48.4
		c0-27.9,20.5-48.4,44.6-48.4s44.6,18.6,44.6,48.4C1128.3,508.1,1107.8,528.6,1083.6,528.6z M877.1,426.3v33.5h80
		c-1.9,18.6-9.3,33.5-18.6,42.8c-11.2,11.2-29.8,24.2-61.4,24.2c-50.2,0-87.4-39.1-87.4-89.3s39.1-89.3,87.4-89.3
		c26,0,46.5,11.2,61.4,24.2l24.2-24.2c-20.5-18.6-46.5-33.5-83.7-33.5c-67,0-124.6,55.8-124.6,122.7S812,560.2,879,560.2
		c37.2,0,63.3-11.2,85.6-35.3c22.3-22.3,29.8-53.9,29.8-78.1c0-7.4,0-14.9-1.9-20.5H877.1z M1721.7,452.3c-7.4-18.6-26-50.2-67-50.2
		c-40.9,0-74.4,31.6-74.4,80c0,44.6,33.5,80,78.1,80c35.3,0,57.7-22.3,65.1-35.3l-26-18.6c-9.3,13-20.5,22.3-39.1,22.3
		s-29.8-7.4-39.1-24.2l106-44.6L1721.7,452.3z M1613.8,478.3c0-29.8,24.2-46.5,40.9-46.5c13,0,26,7.4,29.8,16.7L1613.8,478.3z
		 M1526.4,554.6h35.3V322.1h-35.3V554.6z M1470.5,418.8L1470.5,418.8c-9.3-9.3-24.2-18.6-42.8-18.6c-39.1,0-76.3,35.3-76.3,80
		s35.3,78.1,76.3,78.1c18.6,0,33.5-9.3,40.9-18.6h1.9v11.2c0,29.8-16.7,46.5-42.8,46.5c-20.5,0-35.3-14.9-39.1-27.9l-29.8,13
		c9.3,20.5,31.6,46.5,70.7,46.5c40.9,0,74.4-24.2,74.4-81.8V405.8h-33.5C1470.5,405.8,1470.5,418.8,1470.5,418.8z M1429.6,528.6
		c-24.2,0-44.6-20.5-44.6-48.4c0-27.9,20.5-48.4,44.6-48.4s42.8,20.5,42.8,48.4C1472.4,508.1,1453.8,528.6,1429.6,528.6z
		 M1883.5,322.1h-83.7v232.5h35.3v-87.4h48.4c39.1,0,76.3-27.9,76.3-72.5S1922.6,322.1,1883.5,322.1z M1885.4,433.7h-50.2v-80h50.2
		c26,0,40.9,22.3,40.9,39.1C1924.5,413.2,1909.6,433.7,1885.4,433.7z M2099.3,400.2c-26,0-52.1,11.2-61.4,35.3l31.6,13
		c7.4-13,18.6-16.7,31.6-16.7c18.6,0,35.3,11.2,37.2,29.8v1.9c-5.6-3.7-20.5-9.3-35.3-9.3c-33.5,0-67,18.6-67,52.1
		c0,31.6,27.9,52.1,57.7,52.1c24.2,0,35.3-11.2,44.6-22.3h1.9v18.6h33.5v-89.3C2170,424.4,2138.4,400.2,2099.3,400.2z M2095.6,528.6
		c-11.2,0-27.9-5.6-27.9-20.5c0-18.6,20.5-24.2,37.2-24.2c14.9,0,22.3,3.7,31.6,7.4C2132.8,513.7,2114.2,528.6,2095.6,528.6z
		 M2290.9,405.8l-39.1,100.4h-1.9l-40.9-100.4h-37.2l61.4,141.3l-35.3,78.1h35.3l94.9-219.5H2290.9z M1978.4,554.6h35.3V322.1h-35.3
		V554.6z"/>
	<g>
		<path class="st9" d="M772.9,262.6h-13v-37.2h11.2c9.3-7.4,14.9-22.3,14.9-42.8v-55.8h74.4v98.6h13v37.2h-13v-24.2h-85.6v24.2
			H772.9z M799,182.6c0,16.7-3.7,31.6-11.2,42.8h55.8v-85.5h-46.5v42.8H799z"/>
		<path class="st9" d="M983.1,223.6c-11.2,11.2-24.2,16.7-40.9,16.7s-29.8-5.6-40.9-16.7c-11.2-11.2-16.7-24.2-16.7-40.9
			s5.6-29.8,16.7-40.9c11.2-11.2,24.2-16.7,40.9-16.7s29.8,5.6,40.9,16.7s16.7,24.2,16.7,40.9C999.9,199.4,994.3,212.4,983.1,223.6z
			 M912.5,214.3c7.4,7.4,18.6,13,29.8,13c11.2,0,22.3-3.7,29.8-13c7.4-7.4,13-18.6,13-31.6s-3.7-24.2-13-31.6
			c-7.4-7.4-18.6-13-29.8-13c-11.2,0-22.3,3.7-29.8,13c-7.4,7.4-13,18.6-13,31.6S903.2,206.8,912.5,214.3z"/>
		<path class="st9" d="M1072.4,240.3c-16.7,0-29.8-5.6-40.9-16.7c-11.2-11.2-16.7-24.2-16.7-40.9s5.6-29.8,16.7-40.9
			c11.2-11.2,24.2-16.7,40.9-16.7c16.7,0,29.8,5.6,40.9,18.6l-9.3,9.3c-7.4-9.3-18.6-14.9-31.6-14.9s-22.3,3.7-31.6,13
			c-9.3,7.4-13,18.6-13,31.6s3.7,24.2,13,31.6c7.4,7.4,18.6,13,31.6,13s24.2-5.6,33.5-16.7l9.3,9.3c-5.6,5.6-11.2,11.2-18.6,14.9
			C1089.2,238.4,1081.7,240.3,1072.4,240.3z"/>
		<path class="st9" d="M1174.8,238.4h-14.9v-98.6h-31.6v-13h76.3v13h-31.6v98.6H1174.8z"/>
		<path class="st9" d="M1303.1,126.8l-42.8,94.8c-5.6,13-14.9,20.5-26,20.5c-3.7,0-7.4,0-11.2-1.9l3.7-13c1.9,1.9,5.6,1.9,7.4,1.9
			c3.7,0,5.6,0,7.4-1.9c1.9-1.9,3.7-3.7,5.6-7.4l3.7-9.3l-37.2-81.8h16.7l27.9,63.2l0,0l27.9-65.1H1303.1z"/>
		<path class="st9" d="M1319.9,238.4V126.8h80v111.6H1385v-98.6h-52.1v98.6H1319.9z"/>
		<path class="st9" d="M1425.9,238.4V126.8h14.9v48.4h55.8v-48.4h14.9v111.6h-14.9v-50.2h-55.8v50.2H1425.9z"/>
		<path class="st9" d="M1628.7,223.6c-11.2,11.2-24.2,16.7-40.9,16.7c-16.7,0-29.8-5.6-40.9-16.7c-11.2-11.2-16.7-24.2-16.7-40.9
			s5.6-29.8,16.7-40.9c11.2-11.2,24.2-16.7,40.9-16.7c16.7,0,29.8,5.6,40.9,16.7s16.7,24.2,16.7,40.9
			C1643.6,199.4,1638,212.4,1628.7,223.6z M1556.1,214.3c7.4,7.4,18.6,13,29.8,13c11.2,0,22.3-3.7,29.8-13c7.4-7.4,13-18.6,13-31.6
			s-3.7-24.2-13-31.6c-7.4-7.4-18.6-13-29.8-13c-11.2,0-22.3,3.7-29.8,13c-7.4,7.4-13,18.6-13,31.6S1548.7,206.8,1556.1,214.3z"/>
		<path class="st9" d="M1703.1,238.4V126.8h40.9c9.3,0,16.7,3.7,22.3,9.3c5.6,5.6,9.3,13,9.3,20.5c0,5.6-1.9,9.3-3.7,14.9
			c-1.9,3.7-5.6,7.4-11.2,9.3l0,0c5.6,1.9,9.3,5.6,13,9.3c3.7,3.7,5.6,9.3,5.6,16.7c0,9.3-3.7,16.7-9.3,22.3
			c-7.4,5.6-14.9,9.3-24.2,9.3H1703.1z M1718,175.2h26c5.6,0,9.3-1.9,13-5.6c3.7-3.7,5.6-7.4,5.6-11.2s-3.7-9.3-5.6-13
			c-3.7-3.7-7.4-5.6-13-5.6h-26V175.2z M1718,225.4h29.8c5.6,0,9.3-1.9,13-5.6c3.7-3.7,5.6-7.4,5.6-13c0-3.7-1.9-9.3-5.6-13
			c-3.7-3.7-7.4-5.6-13-5.6h-27.9v37.2H1718z"/>
	</g>
</g>
</svg>
