<?xml version="1.0" encoding="utf-8"?>
<!-- Generator: Adobe Illustrator 22.1.0, SVG Export Plug-In . SVG Version: 6.00 Build 0)  -->
<svg version="1.2" baseProfile="tiny" id="Layer_1" xmlns="http://www.w3.org/2000/svg" xmlns:xlink="http://www.w3.org/1999/xlink"
	 x="0px" y="0px" viewBox="0 0 148.3 191.1" xml:space="preserve">
<g>
	<path fill="#254051" d="M13.4,172.4h3.8L9,189.3c-0.5,1.1-1.6,1.7-2.6,1.7c-1.1,0-1.9-0.7-2.2-1.7l-3.4-16.9h3.7L7,185.8h0.1
		L13.4,172.4z"/>
	<path fill="#254051" d="M17.7,185.3l0.4-2.8h9.2l-0.4,2.8H17.7z"/>
	<path fill="#254051" d="M32.2,176c0.3-2,1.7-3.6,4.1-3.6h3.5c3.4,0,5.7,2.1,5.2,5.2c-0.2,1.5-1.1,2.8-2.8,3.3v0.1
		c1.9,0.6,2.9,2.2,2.6,4.5c-0.6,4-3.7,5.3-7.7,5.3h-6.9L32.2,176z M37.7,182.6h-2.9l-0.7,5h3.2c1.9,0,3.5-0.3,3.8-2.6
		C41.4,182.9,39.6,182.6,37.7,182.6z M35.2,179.7h2.5c1.4,0,3.3,0,3.6-2.1c0.2-1.7-0.9-2.1-3-2.1h-1.7c-0.8,0-0.9,0.4-1,0.9
		L35.2,179.7z"/>
	<path fill="#254051" d="M54,173.8c0.5-1,1.6-1.6,2.7-1.6c1.1,0,2,0.7,2.2,1.6l4,17h-3.6l-1-4.3h-7.2l-2.2,4.3h-3.7L54,173.8z
		 M56.1,176.7H56l-3.4,6.7h4.9L56.1,176.7z"/>
	<path fill="#254051" d="M72.3,173.8l5.5,10.5h0.1l1.7-11.9h3.4l-2.6,18.4h-3.3l-6.5-12.6h-0.1l-1.8,12.6h-3.4l2.3-16.2
		c0.2-1.2,1.1-2.4,2.3-2.4C71.1,172.2,71.8,172.8,72.3,173.8z"/>
	<path fill="#254051" d="M97.3,172.4h4.9l-8.8,7.7l6.9,10.7h-4.2l-5.2-8.5l-1.8,1.6l-1,6.9h-3.5l2.6-18.4h3.5l-1,6.9L97.3,172.4z"/>
	<path fill="#254051" d="M106.2,190.8h-3.5l2.6-18.4h3.5L106.2,190.8z"/>
	<path fill="#254051" d="M117.4,173.8l5.5,10.5h0.1l1.7-11.9h3.4l-2.6,18.4h-3.3l-6.5-12.6h-0.1l-1.8,12.6h-3.4l2.3-16.2
		c0.2-1.2,1.1-2.4,2.3-2.4C116.2,172.2,116.9,172.8,117.4,173.8z"/>
	<path fill="#254051" d="M141.5,187.6l0.5-3.5h-3.5l0.4-3.2h6.8l-1.3,9.3c-2.1,0.6-3.7,0.9-5.8,0.9c-5.8,0-9.1-4.1-8.3-9.8
		c0.7-5.2,4-9.2,10.1-9.2c1.9,0,3.8,0.3,5.4,0.9l-0.5,3.4h-0.4c-1.3-0.7-2.8-1.1-4.5-1.1c-3.8,0-5.9,2.7-6.4,6.3
		c-0.5,3.8,0.9,6.2,4.9,6.2C139.7,187.9,140.9,187.8,141.5,187.6z"/>
</g>
<path fill="#EAEA7A" d="M129.9,0H18.3C8.2,0,0,8.2,0,18.3v111.6c0,10.1,8.2,18.3,18.3,18.3h32.8L102.9,97c1.8-1.8,2.8-4.1,2.8-6.7
	c0-2.5-1-4.9-2.8-6.7L61.6,42.4c-3.6-3.6-9.7-3.6-13.3,0l-26,26L0,46.1V36c0.5,0.4,1.1,0.8,1.5,1.2L22.3,58l20.8-20.8
	c3.2-3.2,7.4-4.9,11.8-4.9s8.7,1.7,11.8,4.9l41.3,41.3c3.2,3.2,4.9,7.4,4.9,11.8c0,4.5-1.7,8.7-4.9,11.8l-45.8,46h67.7
	c10.1,0,18.3-8.2,18.3-18.3V18.3C148.3,8.2,140.1,0,129.9,0z"/>
</svg>
