<?xml version="1.0" encoding="utf-8"?>
<!-- Generator: Adobe Illustrator 22.1.0, SVG Export Plug-In . SVG Version: 6.00 Build 0)  -->
<svg version="1.2" baseProfile="tiny" id="VISA_Logo"
	 xmlns="http://www.w3.org/2000/svg" xmlns:xlink="http://www.w3.org/1999/xlink" x="0px" y="0px" viewBox="0 0 216 69.8"
	 xml:space="preserve">
<path fill="#FFFFFF" d="M82,1.2L53.7,68.7H35.3L21.4,14.9c-0.8-3.3-1.6-4.5-4.2-5.9C13,6.7,6.1,4.5,0,3.2l0.4-2h29.7
	c3.8,0,7.2,2.5,8,6.9l7.4,39L63.7,1.2H82z M154.3,46.7c0.1-17.8-24.6-18.8-24.5-26.7c0.1-2.4,2.4-5,7.4-5.7c2.5-0.3,9.4-0.6,17.2,3
	L157.5,3c-4.2-1.5-9.6-3-16.3-3c-17.3,0-29.4,9.2-29.5,22.3c-0.1,9.7,8.7,15.1,15.3,18.4c6.8,3.3,9.1,5.4,9.1,8.4
	c0,4.5-5.4,6.5-10.4,6.6c-8.8,0.1-13.9-2.4-17.9-4.3l-3.2,14.8c4.1,1.9,11.6,3.5,19.4,3.6C142.2,69.8,154.2,60.7,154.3,46.7
	 M199.9,68.7H216L201.9,1.2H187c-3.3,0-6.2,1.9-7.4,5l-26.2,62.5h18.3l3.6-10.1h22.4L199.9,68.7z M180.4,44.8l9.2-25.3l5.3,25.3
	H180.4z M107,1.2L92.5,68.7H75.1L89.5,1.2H107z"/>
</svg>
