<?xml version="1.0" encoding="utf-8"?>
<!-- Generator: Adobe Illustrator 22.1.0, SVG Export Plug-In . SVG Version: 6.00 Build 0)  -->
<svg version="1.1" id="Слой_1" xmlns="http://www.w3.org/2000/svg" xmlns:xlink="http://www.w3.org/1999/xlink" x="0px" y="0px"
	 viewBox="0 0 24 24" style="enable-background:new 0 0 24 24;" xml:space="preserve">
<style type="text/css">
	.st0{fill-rule:evenodd;clip-rule:evenodd;fill:#30434F;}
	.st1{fill:#2A4250;}
</style>
<g>
	<path class="st0" d="M12.5,4.5l0,15l-1,0l0-15L12.5,4.5z"/>
	<path class="st0" d="M19.5,11.5l0,1l-15,0l0-1L19.5,11.5z"/>
	<g>
		<path class="st1" d="M3.5,20.5c-4.7-4.7-4.7-12.3,0-17s12.3-4.7,17,0C22.8,5.8,24,8.8,24,12s-1.2,6.2-3.5,8.5l0,0l0,0
			C15.8,25.2,8.2,25.2,3.5,20.5z M19.8,4.2c-4.3-4.3-11.3-4.3-15.6,0s-4.3,11.3,0,15.6c4.3,4.3,11.3,4.3,15.6,0l0,0
			c2.1-2.1,3.2-4.8,3.2-7.8C23,9.1,21.9,6.3,19.8,4.2z"/>
	</g>
</g>
</svg>
