<?xml version="1.0" encoding="utf-8"?>
<!-- Generator: Adobe Illustrator 22.1.0, SVG Export Plug-In . SVG Version: 6.00 Build 0)  -->
<svg version="1.1" id="Слой_1" xmlns="http://www.w3.org/2000/svg" xmlns:xlink="http://www.w3.org/1999/xlink" x="0px" y="0px"
	 viewBox="0 0 24 24" style="enable-background:new 0 0 24 24;" xml:space="preserve">
<style type="text/css">
	.st0{fill-rule:evenodd;clip-rule:evenodd;fill:#30434F;}
	.st1{fill:#2A4250;}
</style>
<g>
	<path class="st0" d="M7,6.3l10.6,10.6l-0.7,0.7L6.3,7.1L7,6.3z"/>
	<path class="st0" d="M16.9,6.3l0.7,0.7L7,17.7l-0.7-0.7L16.9,6.3z"/>
	<g>
		<path class="st1" d="M12,24C5.4,24,0,18.6,0,12S5.4,0,12,0c3.2,0,6.2,1.2,8.5,3.5S24,8.8,24,12l0,0l0,0C24,18.6,18.6,24,12,24z
			 M12,1C5.9,1,1,5.9,1,12s4.9,11,11,11c6.1,0,11-4.9,11-11l0,0c0-2.9-1.1-5.7-3.2-7.8C17.7,2.1,14.9,1,12,1z"/>
	</g>
</g>
</svg>
